# xmcd
#
# Track frame offsets:
#	150
#	14832
#	28878
#	42837
#	55311
#	70984
#	82573
#	102385
#	112220
#	127561
#	138537
#	151041
#	167624
#	182950
#	197177
#
# Disc length: 2821 seconds
#
# Revision: 0
# Processed by: cddbd v1.4PL0 Copyright (c) Steve Scherf et al.
# Submitted via: audiograbber 1.82.00
#
DISCID=cb0b030f
DTITLE=Various Artist - CB6136
DYEAR=1900
DGENRE=Country
TTITLE0=Twitty, Conway - There's A Honky Tonk Angel
TTITLE1=Statler Brothers, The - I'll Go To My Grave Loving You
TTITLE2=Gayle, Crystal - I'll Do It All Over Again
TTITLE3=Wallace, Jerry - Primrose Lane
TTITLE4=Pride, Charlie - Burgers and Fries
TTITLE5=Ronstadt, Linda - Silver Threads and Golden Needles
TTITLE6=Robbins, Marty - Please Don't Play A Love Song
TTITLE7=Hall, Tom T. - Fox On The Run
TTITLE8=Wynette, Tammy - One Of A Kind
TTITLE9=Williams, Don - It Must Be Love
TTITLE10=Gilley, Mickey - That's All That Matters To Me
TTITLE11=Parton, Dolly - Old Flames Can't Hold A Candle To You
TTITLE12=Lee, Johnny - Lookin' For Love
TTITLE13=Morgan, George - Red Rose From The Blue Side Of Town
TTITLE14=Ronstadt, Linda - Love Is A Rose
EXTD=
EXTT0=
EXTT1=
EXTT2=
EXTT3=
EXTT4=
EXTT5=
EXTT6=
EXTT7=
EXTT8=
EXTT9=
EXTT10=
EXTT11=
EXTT12=
EXTT13=
EXTT14=
PLAYORDER=
